General
Complete name                    : When In Rome.mkv
Format                           : Matroska
File size                        : 1.61 GiB
Duration                         : 1h 21mn
Overall bit rate                 : 2 837 Kbps


Video
ID                               : 1
Format                           : AVC
Duration                         : 1h 21mn
Bit rate                         : 2 588 Kbps
Width                            : 718 pixels
Height                           : 576 pixels
Display aspect ratio             : 4:3
Original display aspect ratio    : 4:3
Frame rate                       : 25.000 fps
Resolution                       : 8 bits
Colorimetry                      : 4:2:0
Scan type                        : Progressive
Bits/(Pixel*Frame)               : 0.250
Stream size                      : 1.46 GiB (91%)
Writing library                  : x264 core 79


Audio
ID                               : 2
Format                           : AC-3
Format/Info                      : Audio Coding 3
Format profile                   : Dolby Digital
Codec ID                         : A_AC3
Duration                         : 1h 21mn
Bit rate mode                    : Constant
Bit rate                         : 192 Kbps
Channel(s)                       : 2 channels
Channel positions                : L R
Sampling rate                    : 48.0 KHz
Stream size                      : 111 MiB (7%)
Language                         : English

Text #1
Language                         : English

Text #2
Language                         : German

Text #3
Language                         : Hungarian

Text #4
Language                         : Dutch

Text #5
Language                         : Danish

Text #6
Language                         : Polish

Text #7
Language                         : ???xxx???

Text #8
Language                         : Portuguese

Text #9
Language                         : Swedish

Text #10
Language                         : Greek

Text #11
Language                         : Arabic

Text #12
Language                         : Czech

Text #13
Language                         : Croatian

Text #14
Language                         : Slovenian

Text #15
Language                         : Norwegian



